REM GENRE Eurobeat
REM DATE 2016
REM COMMENT "DCue v1.2dev"
PERFORMER "Various"
TITLE "Eurobeat Festival Vol. 2"
FILE "r9922074.wav" WAVE
	TRACK 01 AUDIO
		TITLE "Everlasting"
		PERFORMER "Shironegi"
		INDEX 01 00:00:00
	TRACK 02 AUDIO
		TITLE "Boom Boom Lovin' Desire"
		PERFORMER "紅梔子"
		INDEX 01 05:24:00
	TRACK 03 AUDIO
		TITLE "Dear Mr.Heartbreaker"
		PERFORMER "Rin"
		INDEX 01 09:52:00
	TRACK 04 AUDIO
		TITLE "バグズ・ナイト"
		PERFORMER "紅梔子"
		INDEX 01 14:44:00
	TRACK 05 AUDIO
		TITLE "Midnight Shot!! 2016"
		PERFORMER "紅梔子 ノイズ"
		INDEX 01 19:36:00
	TRACK 06 AUDIO
		TITLE "Eurobeat Ninja Comes Again"
		PERFORMER "nmk"
		INDEX 01 24:28:00
	TRACK 07 AUDIO
		TITLE "Oblivion Phantasm"
		PERFORMER "Setuna"
		INDEX 01 28:32:00
	TRACK 08 AUDIO
		TITLE "Real Hero (Haseko × Sato. Edit)"
		PERFORMER "紅梔子"
		INDEX 01 32:43:00
	TRACK 09 AUDIO
		TITLE "Sadness Memory"
		PERFORMER "橘花音"
		INDEX 01 39:05:00
	TRACK 10 AUDIO
		TITLE "Peerless Gale"
		PERFORMER "かなえゆめ"
		INDEX 01 43:07:00
	TRACK 11 AUDIO
		TITLE "Midnight Shot!! 2016 (Instrumental)"
		PERFORMER "Sugano"
		INDEX 01 47:45:00
	TRACK 12 AUDIO
		TITLE "Eurobeat Ninja Comes Again (Instrumental)"
		PERFORMER "nmk"
		INDEX 01 52:37:00
	TRACK 13 AUDIO
		TITLE "Oblivion Phantasm (Instrumental)"
		PERFORMER "Haseko"
		INDEX 01 56:39:00
